{"title":"Bel.Ami.S01E01.HDTV.Xvid-Limo","uid":9463456,"size":702862627,"categoryP":"video","categoryS":"tv_shows","magnet":"?xt=urn:btih:f78750752d78b30b87e0592f6222e4357e325587&amp;dn=Bel.Ami.S01E01.HDTV.Xvid-Limo&amp;tr=udp%3A%2F%2Ftracker.openbittorrent.com%3A80&amp;tr=udp%3A%2F%2Fopen.demonii.com%3A1337&amp;tr=udp%3A%2F%2Ftracker.coppersurfer.tk%3A6969&amp;tr=udp%3A%2F%2Fexodus.desync.com%3A6969","seeders":1,"leechers":0,"uploader":"tlbslicer","files":3,"time":1389395463,"description":"Screenshots:\n &lt;a href=&quot;\nhttp://s30.postimg.org/yqcmq04xd/vlcsnap_1.png&quot; rel=&quot;nofollow&quot; target=&quot;_NEW&quot;&gt;\nhttp://s30.postimg.org/yqcmq04xd/vlcsnap_1.png&lt;/a&gt;\n &lt;a href=&quot;\nhttp://s30.postimg.org/qiap50d0x/vlcsnap_2.png&quot; rel=&quot;nofollow&quot; target=&quot;_NEW&quot;&gt;\nhttp://s30.postimg.org/qiap50d0x/vlcsnap_2.png&lt;/a&gt;\n &lt;a href=&quot;\nhttp://s30.postimg.org/bnm3qu3g1/vlcsnap_3.png&quot; rel=&quot;nofollow&quot; target=&quot;_NEW&quot;&gt;\nhttp://s30.postimg.org/bnm3qu3g1/vlcsnap_3.png&lt;/a&gt;\n\n\n\n\nFormat                                   : AVI\nFormat/Info                              : Audio Video Interleave\nFile size                                : 670 MiB\nDuration                                 : 58mn 52s\nOverall bit rate                         : 1 592 Kbps\nMovie name                               : Â¿Â¹Â»Ã› Â³Â²Ã€Ãš.E01.131120.HDTV.XviD-LIMO\nWriting application                      : VirtualDubMod 1.5.10.2 (build 2540/release)\n\nVideo\nID                                       : 0\nFormat                                   : MPEG-4 Visual\nFormat profile                           : Advanced Simple@L5\nFormat settings, BVOP                    : No\nFormat settings, QPel                    : No\nFormat settings, GMC                     : No warppoints\nFormat settings, Matrix                  : Default (MPEG)\nCodec ID                                 : XVID\nCodec ID/Hint                            : XviD\nDuration                                 : 58mn 52s\nBit rate                                 : 1 450 Kbps\nWidth                                    : 624 pixels\nHeight                                   : 352 pixels\nDisplay aspect ratio                     : 16:9\nFrame rate                               : 29.970 fps\nColor space                              : YUV\nChroma subsampling                       : 4:2:0\nBit depth                                : 8 bits\nScan type                                : Progressive\nCompression mode                         : Lossy\nBits/(Pixel*Frame)                       : 0.220\nStream size                              : 610 MiB (91%)\nWriting library                          : XviD 1.2.1 (UTC 2008-12-04)\n\nAudio\nID                                       : 1\nFormat                                   : MPEG Audio\nFormat version                           : Version 1\nFormat profile                           : Layer 3\nMode                                     : Joint stereo\nCodec ID                                 : 55\nCodec ID/Hint                            : MP3\nDuration                                 : 58mn 52s\nBit rate mode                            : Constant\nBit rate                                 : 128 Kbps\nChannel(s)                               : 2 channels\nSampling rate                            : 48.0 KHz\nCompression mode                         : Lossy\nStream size                              : 53.9 MiB (8%)\nAlignment                                : Aligned on interleaves\nInterleave, duration                     : 24 ms (0.72 video frame)\nWriting library                          : LAME3.98.2\nLanguage                                 : Undefined\n","torrent":{"xt":"urn:btih:f78750752d78b30b87e0592f6222e4357e325587","amp;dn":"Bel.Ami.S01E01.HDTV.Xvid-Limo","amp;tr":["udp%3A%2F%2Ftracker.openbittorrent.com%3A80","udp%3A%2F%2Fopen.demonii.com%3A1337","udp%3A%2F%2Ftracker.coppersurfer.tk%3A6969","udp%3A%2F%2Fexodus.desync.com%3A6969"],"infoHash":"f78750752d78b30b87e0592f6222e4357e325587","infoHashBuffer":{"type":"Buffer","data":[247,135,80,117,45,120,179,11,135,224,89,47,98,34,228,53,126,50,85,135]},"announce":[],"urlList":[]}}